<svg xmlns:xlink="http://www.w3.org/1999/xlink" xmlns="http://www.w3.org/2000/svg" height="136" width="136" viewBox="0 0 37 37"><path fill="#FFFFFF" d="M0,0 h37v37H0z" shapeRendering="crispEdges"></path><path fill="#000000" d="M0 0h7v1H0zM8 0h3v1H8zM13 0h1v1H13zM15 0h2v1H15zM18 0h1v1H18zM23 0h1v1H23zM25 0h1v1H25zM27 0h2v1H27zM30,0 h7v1H30zM0 1h1v1H0zM6 1h1v1H6zM9 1h1v1H9zM11 1h1v1H11zM13 1h3v1H13zM18 1h3v1H18zM22 1h1v1H22zM25 1h2v1H25zM28 1h1v1H28zM30 1h1v1H30zM36,1 h1v1H36zM0 2h1v1H0zM2 2h3v1H2zM6 2h1v1H6zM9 2h1v1H9zM11 2h2v1H11zM16 2h3v1H16zM20 2h2v1H20zM23 2h2v1H23zM26 2h2v1H26zM30 2h1v1H30zM32 2h3v1H32zM36,2 h1v1H36zM0 3h1v1H0zM2 3h3v1H2zM6 3h1v1H6zM8 3h1v1H8zM11 3h1v1H11zM14 3h1v1H14zM16 3h1v1H16zM18 3h2v1H18zM23 3h1v1H23zM25 3h2v1H25zM28 3h1v1H28zM30 3h1v1H30zM32 3h3v1H32zM36,3 h1v1H36zM0 4h1v1H0zM2 4h3v1H2zM6 4h1v1H6zM8 4h2v1H8zM13 4h3v1H13zM17 4h2v1H17zM23 4h1v1H23zM25 4h4v1H25zM30 4h1v1H30zM32 4h3v1H32zM36,4 h1v1H36zM0 5h1v1H0zM6 5h1v1H6zM8 5h2v1H8zM13 5h1v1H13zM15 5h1v1H15zM19 5h1v1H19zM21 5h1v1H21zM25 5h2v1H25zM30 5h1v1H30zM36,5 h1v1H36zM0 6h7v1H0zM8 6h1v1H8zM10 6h1v1H10zM12 6h1v1H12zM14 6h1v1H14zM16 6h1v1H16zM18 6h1v1H18zM20 6h1v1H20zM22 6h1v1H22zM24 6h1v1H24zM26 6h1v1H26zM28 6h1v1H28zM30,6 h7v1H30zM8 7h3v1H8zM12 7h2v1H12zM15 7h1v1H15zM17 7h1v1H17zM19 7h3v1H19zM24 7h1v1H24zM0 8h1v1H0zM4 8h1v1H4zM6 8h4v1H6zM17 8h1v1H17zM20 8h5v1H20zM27 8h1v1H27zM29 8h5v1H29zM36,8 h1v1H36zM2 9h3v1H2zM8 9h3v1H8zM12 9h3v1H12zM18 9h1v1H18zM21 9h3v1H21zM26 9h4v1H26zM32 9h1v1H32zM35 9h1v1H35zM0 10h1v1H0zM4 10h3v1H4zM8 10h1v1H8zM10 10h3v1H10zM15 10h4v1H15zM20 10h1v1H20zM23 10h1v1H23zM25 10h3v1H25zM32 10h1v1H32zM1 11h1v1H1zM3 11h1v1H3zM7 11h1v1H7zM10 11h1v1H10zM12 11h2v1H12zM16 11h2v1H16zM19 11h5v1H19zM27 11h2v1H27zM30 11h2v1H30zM34 11h2v1H34zM0 12h1v1H0zM3 12h1v1H3zM6 12h2v1H6zM9 12h1v1H9zM11 12h4v1H11zM17 12h2v1H17zM20 12h2v1H20zM23 12h2v1H23zM29 12h2v1H29zM34,12 h3v1H34zM0 13h2v1H0zM3 13h2v1H3zM11 13h3v1H11zM15 13h2v1H15zM23 13h7v1H23zM32 13h2v1H32zM0 14h5v1H0zM6 14h1v1H6zM8 14h1v1H8zM10 14h3v1H10zM15 14h1v1H15zM17 14h2v1H17zM22 14h3v1H22zM27 14h1v1H27zM31 14h4v1H31zM0 15h6v1H0zM8 15h1v1H8zM10 15h4v1H10zM16 15h3v1H16zM20 15h5v1H20zM26 15h3v1H26zM31 15h2v1H31zM34,15 h3v1H34zM3 16h1v1H3zM5 16h3v1H5zM9 16h1v1H9zM16 16h2v1H16zM20 16h2v1H20zM23 16h2v1H23zM27 16h1v1H27zM29 16h3v1H29zM33 16h2v1H33zM36,16 h1v1H36zM4 17h2v1H4zM12 17h1v1H12zM15 17h1v1H15zM17 17h2v1H17zM21 17h3v1H21zM25 17h5v1H25zM31 17h3v1H31zM35 17h1v1H35zM0 18h1v1H0zM4 18h1v1H4zM6 18h4v1H6zM12 18h2v1H12zM15 18h2v1H15zM18 18h1v1H18zM20 18h1v1H20zM23 18h1v1H23zM25 18h1v1H25zM27 18h1v1H27zM32 18h1v1H32zM34 18h1v1H34zM0 19h6v1H0zM7 19h1v1H7zM9 19h2v1H9zM12 19h1v1H12zM17 19h3v1H17zM21 19h1v1H21zM23 19h2v1H23zM26 19h1v1H26zM28 19h1v1H28zM30 19h1v1H30zM33 19h3v1H33zM1 20h1v1H1zM3 20h4v1H3zM11 20h1v1H11zM14 20h4v1H14zM19 20h4v1H19zM24 20h1v1H24zM29 20h3v1H29zM33 20h2v1H33zM2 21h1v1H2zM5 21h1v1H5zM9 21h1v1H9zM12 21h5v1H12zM23 21h1v1H23zM26 21h4v1H26zM31 21h2v1H31zM35 21h1v1H35zM0 22h2v1H0zM5 22h3v1H5zM10 22h3v1H10zM14 22h2v1H14zM23 22h2v1H23zM27 22h2v1H27zM31 22h4v1H31zM1 23h1v1H1zM3 23h1v1H3zM7 23h1v1H7zM11 23h1v1H11zM17 23h5v1H17zM24 23h1v1H24zM26 23h1v1H26zM28 23h2v1H28zM31 23h2v1H31zM34 23h1v1H34zM0 24h1v1H0zM2 24h1v1H2zM4 24h1v1H4zM6 24h1v1H6zM12 24h1v1H12zM15 24h1v1H15zM17 24h1v1H17zM20 24h4v1H20zM29 24h3v1H29zM33,24 h4v1H33zM0 25h1v1H0zM7 25h2v1H7zM10 25h1v1H10zM12 25h1v1H12zM15 25h2v1H15zM23 25h1v1H23zM25 25h4v1H25zM32 25h3v1H32zM2 26h1v1H2zM4 26h9v1H4zM14 26h2v1H14zM17 26h2v1H17zM21 26h1v1H21zM23 26h2v1H23zM26 26h2v1H26zM31 26h1v1H31zM34 26h1v1H34zM4 27h2v1H4zM8 27h2v1H8zM12 27h1v1H12zM14 27h1v1H14zM17 27h2v1H17zM20 27h5v1H20zM26 27h1v1H26zM30 27h2v1H30zM34 27h2v1H34zM0 28h2v1H0zM3 28h2v1H3zM6 28h1v1H6zM8 28h1v1H8zM10 28h1v1H10zM12 28h1v1H12zM15 28h3v1H15zM19 28h6v1H19zM26,28 h11v1H26zM8 29h1v1H8zM11 29h1v1H11zM16 29h1v1H16zM21 29h1v1H21zM23 29h1v1H23zM25 29h2v1H25zM28 29h1v1H28zM32 29h1v1H32zM35 29h1v1H35zM0 30h7v1H0zM8 30h1v1H8zM10 30h1v1H10zM13 30h1v1H13zM15 30h1v1H15zM17 30h2v1H17zM20 30h1v1H20zM23 30h4v1H23zM28 30h1v1H28zM30 30h1v1H30zM32 30h1v1H32zM0 31h1v1H0zM6 31h1v1H6zM9 31h3v1H9zM15 31h1v1H15zM17 31h1v1H17zM19 31h4v1H19zM26 31h1v1H26zM28 31h1v1H28zM32 31h3v1H32zM36,31 h1v1H36zM0 32h1v1H0zM2 32h3v1H2zM6 32h1v1H6zM8 32h2v1H8zM12 32h4v1H12zM17 32h1v1H17zM19 32h1v1H19zM21 32h2v1H21zM28 32h8v1H28zM0 33h1v1H0zM2 33h3v1H2zM6 33h1v1H6zM9 33h1v1H9zM13 33h4v1H13zM18 33h1v1H18zM21 33h1v1H21zM23 33h2v1H23zM26 33h1v1H26zM28 33h1v1H28zM30 33h2v1H30zM33 33h1v1H33zM35,33 h2v1H35zM0 34h1v1H0zM2 34h3v1H2zM6 34h1v1H6zM10 34h2v1H10zM14 34h2v1H14zM17 34h2v1H17zM23 34h1v1H23zM25 34h2v1H25zM29 34h2v1H29zM0 35h1v1H0zM6 35h1v1H6zM9 35h1v1H9zM11 35h2v1H11zM14 35h4v1H14zM19 35h3v1H19zM24 35h1v1H24zM28 35h1v1H28zM30 35h1v1H30zM32 35h1v1H32zM34 35h2v1H34zM0 36h7v1H0zM8 36h1v1H8zM10 36h2v1H10zM13 36h1v1H13zM15 36h1v1H15zM17 36h1v1H17zM19 36h1v1H19zM21 36h4v1H21zM27 36h1v1H27zM29 36h3v1H29zM34,36 h3v1H34z" shapeRendering="crispEdges"></path></svg>