<svg width="328" height="248" fill="none" xmlns="http://www.w3.org/2000/svg"><g clip-path="url(#clip0_6694_208738)"><circle cx="163.527" cy="153.211" r="65.078" fill="#328DFD"/><path opacity=".5" d="M98.449 153.211c0 35.942 29.137 65.079 65.078 65.079V88.133c-35.941 0-65.078 29.137-65.078 65.078z" fill="url(#paint0_linear_6694_208738)"/><path d="M227.168 139.56a65.211 65.211 0 011.394 11.333l-6.364-6.363 4.97-4.97zm-4.06-12.561l-5.342 5.342 4.432 4.432-4.875 4.876v5.761l-7.091-7.091v-6.426h-7.092v8.864l-5.762 5.762-16.177-16.178h-17.728l9.307 9.308v6.205h-11.967l-9.085-9.086h-4.211v5.983l10.637 10.637h10.194v7.757l-11.967 11.966 5.319 5.319-5.319 5.318v13.075l-9.972 9.972v-9.972h-5.54l-7.092-7.091v-10.859l-9.307-9.307v-8.2h-12.632l-6.426-6.426v-14.183l9.972-9.973h11.967l6.205 6.205v-3.988h9.529l4.432-4.433-5.983-5.983h-2.881v3.546h-2.881l-3.989-3.989v5.318l-3.546-3.545h-5.318v4.432h-6.427v-3.546l7.313-7.313-4.21-4.21h18.615l3.324-3.324v-5.319l-5.319 5.319h-3.767v-3.768l7.756-7.756h23.269l7.534-7.535V88.56c23.369 2.675 42.976 17.729 52.101 38.44z" fill="#28D294"/><path d="M125.483 106.856l-3.451 3.451 3.451 3.451 3.451-3.451-3.451-3.451zm74.998 43.879h4.432v5.761h-4.432v-5.761zm-30.752 31.435l-6.205 6.205v10.858h6.205V182.17z" fill="#28D294"/><g style="mix-blend-mode:soft-light" opacity=".6" fill="#000"><path d="M163.524 100.378l-.051.052h-23.269l-7.756 7.756v3.767h3.767l5.319-5.318v5.318l-3.324 3.325h-18.615l4.21 4.21-7.313 7.313v3.546h6.427v-4.432h5.318l3.546 3.545v-5.318l3.989 3.989h2.881v-3.546h2.881l5.983 5.983-4.432 4.433h-9.529v3.988l-6.205-6.205h-11.967l-9.972 9.973v14.183l6.426 6.426h12.632v8.2l9.307 9.307v10.859l7.092 7.091h5.54v9.972l9.972-9.972v-13.075l5.319-5.318-5.319-5.319 7.143-7.143v-12.58h-5.37l-10.637-10.637v-5.983h4.211l9.085 9.086h2.711v-15.461l-.051-.052h.051v-31.963z"/><path d="M122.032 110.307l3.451-3.451 3.451 3.451-3.451 3.451-3.451-3.451z"/></g><ellipse opacity=".1" cx="43.52" cy="43.513" rx="43.52" ry="43.513" transform="matrix(-1 0 0 1 119.102 144.352)" fill="#B7BDC6"/><mask id="a" style="mask-type:alpha" maskUnits="userSpaceOnUse" x="32" y="146" width="86" height="86"><ellipse cx="42.501" cy="42.494" rx="42.501" ry="42.494" transform="matrix(-1 0 0 1 117.812 146.58)" fill="#D9D9D9"/></mask><g mask="url(#a)"><path fill-rule="evenodd" clip-rule="evenodd" d="M94.894 244.427H83.22v10.816h11.675c9.638 0 14.464-11.65 7.65-18.464l-6.535-6.533-7.649 7.648 6.534 6.533z" fill="#FFBEA6"/><path fill-rule="evenodd" clip-rule="evenodd" d="M94.894 244.427H83.22v10.816h11.675c9.638 0 14.464-11.65 7.65-18.464l-6.535-6.533-7.649 7.648 6.534 6.533z" fill="url(#paint1_linear_6694_208738)" opacity=".6"/><path fill-rule="evenodd" clip-rule="evenodd" d="M96.128 230.173l-.939-.939-.002-.002-6.726-6.725-1.303 1.302a25.491 25.491 0 00-9.999-2.042h-4.62v15.451h4.62c2.664 0 5.22 1.058 7.103 2.942l.94.939 10.926-10.926z" fill="#5E6673"/><path fill-rule="evenodd" clip-rule="evenodd" d="M96.128 230.173l-.939-.939-.002-.002-6.726-6.725-1.303 1.302a25.491 25.491 0 00-9.999-2.042h-4.62v15.451h4.62c2.664 0 5.22 1.058 7.103 2.942l.94.939 10.926-10.926z" fill="url(#paint2_linear_6694_208738)" opacity=".6"/><path fill-rule="evenodd" clip-rule="evenodd" d="M72.6 242.488v-19.7H57.147v19.7H72.6z" fill="#5E6673"/><path fill-rule="evenodd" clip-rule="evenodd" d="M57.139 191.231L44.808 203.56h-15.91v12.361h15.91a12.36 12.36 0 008.742-3.621l12.33-12.328-8.741-8.741z" fill="#F0B90B"/><path fill-rule="evenodd" clip-rule="evenodd" d="M57.139 191.231L44.808 203.56h-15.91v12.361h15.91a12.36 12.36 0 008.742-3.621l12.33-12.328-8.741-8.741z" fill="url(#paint3_linear_6694_208738)" opacity=".6"/><path fill-rule="evenodd" clip-rule="evenodd" d="M68.44 191.231l5.65 5.638 5.65-5.638h11.401v33.993H57.143v-33.993h11.298z" fill="#F0B90B"/><path d="M81.335 169.837c3.922 3.922 3.922 10.281 0 14.204-3.923 3.922-10.283 3.922-14.206 0l14.206-14.204z" fill="#FFBEA6"/><path d="M81.335 169.837c3.922 3.922 3.922 10.281 0 14.204-3.923 3.922-10.283 3.922-14.206 0l14.206-14.204z" fill="url(#paint4_linear_6694_208738)" opacity=".6"/><path d="M81.331 169.837c-3.923-3.922-10.283-3.922-14.206 0-3.922 3.923-3.922 10.282 0 14.204l14.206-14.204z" fill="#935A30"/><path d="M90.936 197.24v0c9.917 0 14.883-11.988 7.87-18.999l-1.435-1.436" stroke="#F0B90B" stroke-width="12.148"/><path d="M90.936 197.24v0c9.917 0 14.883-11.988 7.87-18.999l-1.435-1.436" stroke="url(#paint5_linear_6694_208738)" stroke-opacity=".6" stroke-width="12.148"/><path fill="#FFBEA6" d="M96.896 174.55H86.298v-10.596h10.598z"/></g><ellipse opacity=".1" cx="241.414" cy="71.165" rx="55.338" ry="55.33" transform="rotate(-45 241.414 71.165)" fill="#707A8A"/><mask id="b" style="mask-type:alpha" maskUnits="userSpaceOnUse" x="190" y="19" width="107" height="107"><ellipse cx="243.463" cy="72.56" rx="53.346" ry="53.338" transform="rotate(-45 243.463 72.56)" fill="#D9D9D9"/></mask><g mask="url(#b)"><path fill-rule="evenodd" clip-rule="evenodd" d="M261.461 127.514v-1.67l.001-11.939h2.312a31.991 31.991 0 017.062-10.687l4.101-4.1 13.713 13.713-4.101 4.101a12.613 12.613 0 00-3.693 8.915v1.666l-19.395.001z" fill="#5E6673"/><path fill-rule="evenodd" clip-rule="evenodd" d="M261.461 127.514v-1.67l.001-11.939h2.312a31.991 31.991 0 017.062-10.687l4.101-4.1 13.713 13.713-4.101 4.101a12.613 12.613 0 00-3.693 8.915v1.666l-19.395.001z" fill="url(#paint6_linear_6694_208738)" opacity=".6"/><path d="M285.384 128.88l9.6 9.599h9.6l9.6-.001-9.599-9.6-9.6-9.599-9.601 9.601z" fill="#02C076"/><path d="M285.384 128.88l9.6 9.599h9.6l9.6-.001-9.599-9.6-9.6-9.599-9.601 9.601z" fill="url(#paint7_linear_6694_208738)" opacity=".6"/><path fill-rule="evenodd" clip-rule="evenodd" d="M302.87 107.963l35.998 35.998-9.601 9.601-35.998-35.998 9.601-9.601z" fill="#FFBEA6"/><path fill-rule="evenodd" clip-rule="evenodd" d="M302.87 107.963l35.998 35.998-9.601 9.601-35.998-35.998 9.601-9.601z" fill="url(#paint8_linear_6694_208738)" opacity=".6"/><path fill-rule="evenodd" clip-rule="evenodd" d="M293.274 117.564l-17.485-17.484 13.716-13.716 17.484 17.485-13.715 13.715z" fill="#5E6673"/><path fill-rule="evenodd" clip-rule="evenodd" d="M261.505 58.34h21.886l14.122-14.123 10.971 10.971-14.122 14.122a15.519 15.519 0 01-10.972 4.546l-21.886.001.001-15.516z" fill="#F0B90B"/><path fill-rule="evenodd" clip-rule="evenodd" d="M261.505 58.34h21.886l14.122-14.123 10.971 10.971-14.122 14.122a15.519 15.519 0 01-10.972 4.546l-21.886.001.001-15.516z" fill="url(#paint9_linear_6694_208738)" opacity=".6"/><path fill-rule="evenodd" clip-rule="evenodd" d="M251.471 68.381L251.46 78.4l-10.018.01-10.118 10.12 30.169 30.17 30.175-30.175-30.17-30.17-10.027 10.027z" fill="#F0B90B"/><path d="M315.72 36.705l-9.601 9.6-9.599-9.599 9.601-9.6 9.599 9.599z" fill="#FFBEA6"/><path d="M236.838 93.685v0c-8.802 8.801-23.849 2.57-23.848-9.877v-2.55" stroke="#F0B90B" stroke-width="15.248"/><path d="M236.838 93.685v0c-8.802 8.801-23.849 2.57-23.848-9.877v-2.55" stroke="url(#paint10_linear_6694_208738)" stroke-opacity=".6" stroke-width="15.248"/><path fill="#935A30" d="M211.408 78.84l9.406-9.406-9.405-9.405-9.406 9.406z"/></g><path opacity=".2" d="M8.015 55.372h93.327l-17.8 17.8H8.016v-17.8z" fill="url(#paint11_linear_6694_208738)"/><path fill-rule="evenodd" clip-rule="evenodd" d="M81.35 65.923l-7.216 7.216 4.763 4.762 7.215-7.216-4.762-4.762z" fill="#CB8C54"/><path opacity=".2" d="M8.015 76.778h66.868v6.735H8.015v-6.735z" fill="url(#paint12_linear_6694_208738)"/><path d="M68.098 76.722v6.735h6.735v-6.735h-6.735z" fill="#CB8C54"/><path fill-rule="evenodd" clip-rule="evenodd" d="M112.865 43.836l3.371-3.371a.213.213 0 01.151-.063h11.322v-6.735h-11.322a6.948 6.948 0 00-4.914 2.036l-3.371 3.372 4.763 4.761zM96.21 83.661l-8.418 8.419-4.763-4.762 8.419-8.42 4.762 4.763z" fill="#CB8C54"/><path fill-rule="evenodd" clip-rule="evenodd" d="M87.816 92.056l-4.81 4.81-4.763-4.761 4.81-4.811 4.763 4.762z" fill="#28D294"/><path fill-rule="evenodd" clip-rule="evenodd" d="M69.623 100.739l8.659-8.66 4.762 4.763-8.66 8.659-4.761-4.762z" fill="#474D57"/><path fill-rule="evenodd" clip-rule="evenodd" d="M91.452 78.909l14.432-14.432 6.803 6.803-14.432 14.432-6.803-6.803z" fill="#328DFD"/><path fill-rule="evenodd" clip-rule="evenodd" d="M91.452 78.909l14.432-14.432 6.803 6.803-14.432 14.432-6.803-6.803z" fill="#0B0E11" opacity=".6"/><path fill-rule="evenodd" clip-rule="evenodd" d="M103.691 86.787l-7.937 7.938-4.763-4.762 7.938-7.938 4.762 4.762z" fill="#CB8C54"/><path fill-rule="evenodd" clip-rule="evenodd" d="M81.35 65.923l-7.216 7.216 4.763 4.762 7.215-7.216-4.762-4.762z" fill="url(#paint13_linear_6694_208738)" opacity=".6"/><path fill-rule="evenodd" clip-rule="evenodd" d="M112.865 43.836l3.433-3.434h11.411v-6.735h-11.411c-1.786 0-3.5.71-4.763 1.973l-3.433 3.435 4.763 4.761z" fill="url(#paint14_linear_6694_208738)" opacity=".6"/><path fill-rule="evenodd" clip-rule="evenodd" d="M96.21 83.661l-8.418 8.419-4.763-4.762 8.419-8.42 4.762 4.763z" fill="url(#paint15_linear_6694_208738)" opacity=".6"/><path fill-rule="evenodd" clip-rule="evenodd" d="M103.691 86.789l-7.937 7.937-4.763-4.762 7.938-7.938 4.762 4.763z" fill="url(#paint16_linear_6694_208738)" opacity=".6"/><path fill-rule="evenodd" clip-rule="evenodd" d="M95.758 94.725l-4.81 4.81-4.763-4.762 4.811-4.81 4.762 4.762z" fill="#28D294"/><path fill-rule="evenodd" clip-rule="evenodd" d="M80.154 100.786l6.014-6.013 4.762 4.762-6.014 6.013-4.762-4.762z" fill="#474D57"/><path fill-rule="evenodd" clip-rule="evenodd" d="M88.475 58.847l-7.216 7.216 5.442 5.443 7.216-7.216-5.442-5.443z" fill="#F8D33A"/><path fill-rule="evenodd" clip-rule="evenodd" d="M88.475 58.847l-7.216 7.216 5.442 5.443 7.216-7.216-5.442-5.443z" fill="url(#paint17_linear_6694_208738)" opacity=".6"/><path fill-rule="evenodd" clip-rule="evenodd" d="M107.375 50.763l6.317-6.316-5.443-5.443-6.316 6.316 5.442 5.443z" fill="#F8D33A"/><path fill-rule="evenodd" clip-rule="evenodd" d="M107.375 50.763l6.317-6.316-5.443-5.443-6.316 6.316 5.442 5.443z" fill="url(#paint18_linear_6694_208738)" opacity=".6"/><path d="M136.61 37.275h-6.735v6.735h6.735v-6.735z" fill="#CB8C54"/><path opacity=".2" d="M8.015 97.59h55.076v27.178H8.015V97.591z" fill="url(#paint19_linear_6694_208738)"/><path opacity=".2" d="M8.015 39.004h79.849v12.409H8.015v-12.41z" fill="url(#paint20_linear_6694_208738)"/><path fill-rule="evenodd" clip-rule="evenodd" d="M114.926 56.145l4.931 4.93a9.62 9.62 0 010 13.607L105.7 88.84l-6.803-6.803 12.267-12.267-4.931-4.931 8.693-8.693z" fill="#328DFD"/><path fill-rule="evenodd" clip-rule="evenodd" d="M97.247 50.027l-.005 5.28-5.28.006-3.906 3.905 15.394 15.394L118.472 59.7l-15.449-15.449-5.776 5.776z" fill="#F8D33A"/><path d="M92.285 49.581a6.253 6.253 0 10-8.843-8.843 6.253 6.253 0 008.843 8.843z" fill="#CB8C54"/><path d="M83.442 49.581a6.253 6.253 0 018.843-8.843l-8.843 8.843z" fill="#6A4C0C"/><path d="M40.278 115.374h39.661l-9.158-9.14H31.119l11.055 4.57-1.896 4.57z" fill="#328DFD"/><path d="M44.592 97.575h60.133l18.521 18.521v1.443l-18.521-18.521H44.592v-1.443z" fill="#FF7E0D"/><path d="M44.592 106.234h60.133l18.521 18.521H63.113l-18.521-18.521z" fill="#FF7E0D"/><path d="M123.246 124.755l-18.521-18.521H44.832a3.608 3.608 0 100-7.216h59.893l18.521 18.521v7.216z" fill="#fff"/><path d="M104.715 106.234l18.521 18.521v-7.216l-18.521-18.52v7.215z" fill="#E6E8EA"/><path d="M44.592 106.234h60.133l18.521 18.521H63.113l-18.521-18.521z" fill="url(#paint21_linear_6694_208738)" opacity=".6"/><path d="M121.783 116.096h1.443v8.659l-1.443-1.443v-7.216z" fill="#FF7E0D"/><path d="M129.833 55.33l-1.801 1.801-1.801-1.8 1.801-1.802 1.801 1.801z" fill="#328DFD"/><path d="M63.038 91.189l1.146-1.146 1.146 1.146-1.146 1.146-1.146-1.146z" fill="#fff"/><path d="M119.032 90.452l2.211-2.21 2.21 2.21-2.21 2.21-2.211-2.21z" fill="#F0B90B"/><path d="M69.256 60.816l2.21-2.21 2.21 2.21-2.21 2.21-2.21-2.21z" fill="#fff"/><path d="M73.183 24.384l3.274-3.275 3.275 3.275-3.275 3.274-3.274-3.274z" fill="#F0B90B"/><path d="M112.15 94.792l1.147-1.147 1.146 1.147-1.146 1.146-1.147-1.146zM33.235 68.757l1.146-1.146 1.147 1.146-1.147 1.147-1.146-1.147zm68.771-36.514l1.473-1.474 1.474 1.474-1.474 1.474-1.473-1.474z" fill="#FF7E0D"/><path d="M244.562 56.23l-24.072 3.84-2.314 19.567 33.554-5.351-7.168-18.056z" fill="#0B0E11"/><path d="M246.985 59.742c-1.166-7.308-8.035-12.287-15.342-11.122-7.308 1.166-12.287 8.035-11.122 15.342l26.464-4.22z" fill="#0B0E11"/><path d="M222.176 63.773c1.004 6.294 6.92 10.582 13.213 9.578 6.293-1.004 10.581-6.92 9.578-13.213l-22.791 3.635z" fill="#935A30"/><path d="M239.969 60.853l5.862-4.824 8.287 17.877-14.637 2.334.488-15.386z" fill="#0B0E11"/><path d="M245.899 158.907l-8.77 8.77a4.054 4.054 0 01-5.733 0l-8.022-8.021" stroke="#F0B90B" stroke-width="8.108"/><path fill-rule="evenodd" clip-rule="evenodd" d="M248.758 161.773l-8.77 8.771a8.11 8.11 0 01-11.467 0l-8.021-8.022 5.733-5.733 8.022 8.022 8.77-8.771 5.733 5.733z" fill="url(#paint22_linear_6694_208738)" opacity=".6"/><path d="M214.687 235.365l18.532-66.383.979.265-18.462 66.118h-1.049z" fill="#AEB4BC"/><path d="M233.227 168.982h7.601l.507 1.013h-8.108v-1.013zm2.121 66.383l18.034-66.262.978.265-17.962 65.997h-1.05z" fill="#AEB4BC"/><path d="M259.607 168.982h-18.785l17.953 66.383h1.049l-17.679-65.37h16.686l17.68 65.37h1.049l-17.953-66.383z" fill="#E6E8EA"/><path d="M259.607 168.982h-18.785l17.953 66.383h1.049l-17.679-65.37h16.686l17.68 65.37h1.049l-17.953-66.383z" fill="#AEB4BC"/><path fill-rule="evenodd" clip-rule="evenodd" d="M243.091 208.762h-20.016v-1.014h20.016v1.014zm13.439 16.759h-38.568v-1.087h38.568v1.087z" fill="#AEB4BC"/><path fill-rule="evenodd" clip-rule="evenodd" d="M262.358 180.89h-17.989v-1.013h17.989v1.013zm3.041 11.149h-17.736v-1.014h17.736v1.014zm3.04 11.148h-17.736v-1.013h17.736v1.013zm3.041 11.148h-17.736v-1.013h17.736v1.013zm3.04 11.149h-17.989v-1.014h17.989v1.014z" fill="#E6E8EA"/><path fill-rule="evenodd" clip-rule="evenodd" d="M262.358 180.89h-17.989v-1.013h17.989v1.013zm3.041 11.149h-17.736v-1.014h17.736v1.014zm3.04 11.148h-17.736v-1.013h17.736v1.013zm3.041 11.148h-17.736v-1.013h17.736v1.013zm3.04 11.149h-17.989v-1.014h17.989v1.014z" fill="#AEB4BC"/><path d="M262.917 206.142h-7.174l-7.173 7.173h14.347v-7.173zm34.883-17.346l-5.072 5.072v10.144l10.144-10.144-5.072-5.072z" fill="#5E6673"/><path fill="#EAECEF" d="M262.917 206.143v-7.173h-7.173v7.173zm34.887-17.347l-5.072-5.072-5.072 5.072 5.072 5.072z"/><path d="M271.183 159.124l.969.969a9.719 9.719 0 010 13.747l-7.843-7.843 6.874-6.873z" fill="#484E58"/><path fill-rule="evenodd" clip-rule="evenodd" d="M263.265 161.752l-7.571 7.571v29.899h10.135v-25.701l4.602-4.602-7.166-7.167z" fill="#1773EB"/><path fill-rule="evenodd" clip-rule="evenodd" d="M271.459 159.09l-7.166 7.167 23.333 23.333 7.166-7.167-23.333-23.333z" fill="url(#paint23_linear_6694_208738)"/><path fill-rule="evenodd" clip-rule="evenodd" d="M243.496 155.553h6.438v-6.437l.521-.521a7.346 7.346 0 0110.391 0l10.585 10.585-15.78 15.78-15.781-15.78 3.626-3.627z" fill="#F0B90B"/><path fill-rule="evenodd" clip-rule="evenodd" d="M246.739 186.96l12.161 44.973-.978.265-12.162-44.973.979-.265z" fill="#E6E8EA"/><path fill-rule="evenodd" clip-rule="evenodd" d="M246.739 186.96l12.161 44.973-.978.265-12.162-44.973.979-.265z" fill="#AEB4BC"/><path d="M256.86 153.773v9.755a4.054 4.054 0 01-1.187 2.867l-7.746 7.746" stroke="#F0B90B" stroke-width="8.108"/><path fill="#CB8C54" d="M239.299 182.657h7.094v-7.094h-7.094zm-25.333-32.41h7.101v7.101h-7.101z"/><path fill-rule="evenodd" clip-rule="evenodd" d="M252.801 153.773v9.755l-7.746 7.746 5.733 5.733 7.746-7.745a8.112 8.112 0 002.375-5.734v-9.755h-8.108z" fill="url(#paint24_linear_6694_208738)" opacity=".6"/><path d="M237.668 139.994a6.567 6.567 0 009.285 9.286l-9.285-9.286z" fill="#CB8C54"/><path d="M237.656 139.994a6.565 6.565 0 119.285 9.285l-9.285-9.285z" fill="#6A4C0C"/></g><defs><linearGradient id="paint0_linear_6694_208738" x1="112.619" y1="218.29" x2="180.846" y2="150.063" gradientUnits="userSpaceOnUse"><stop stop-color="#2B2F36"/><stop offset="1" stop-color="#2B2F36" stop-opacity="0"/></linearGradient><linearGradient id="paint1_linear_6694_208738" x1="100.069" y1="241.952" x2="87.704" y2="254.319" gradientUnits="userSpaceOnUse"><stop/><stop offset="1" stop-opacity="0"/></linearGradient><linearGradient id="paint2_linear_6694_208738" x1="90.665" y1="231.803" x2="57.048" y2="231.803" gradientUnits="userSpaceOnUse"><stop stop-opacity="0"/><stop offset="1"/></linearGradient><linearGradient id="paint3_linear_6694_208738" x1="59.205" y1="202.671" x2="38.258" y2="202.671" gradientUnits="userSpaceOnUse"><stop/><stop offset="1" stop-opacity="0"/></linearGradient><linearGradient id="paint4_linear_6694_208738" x1="71.037" y1="185.759" x2="77.542" y2="179.252" gradientUnits="userSpaceOnUse"><stop/><stop offset="1" stop-opacity="0"/></linearGradient><linearGradient id="paint5_linear_6694_208738" x1="87.695" y1="197.055" x2="115.876" y2="176.831" gradientUnits="userSpaceOnUse"><stop/><stop offset="1" stop-opacity="0"/></linearGradient><linearGradient id="paint6_linear_6694_208738" x1="267.756" y1="124.112" x2="297.593" y2="94.275" gradientUnits="userSpaceOnUse"><stop stop-opacity="0"/><stop offset="1"/></linearGradient><linearGradient id="paint7_linear_6694_208738" x1="306.581" y1="130.874" x2="300.127" y2="137.328" gradientUnits="userSpaceOnUse"><stop/><stop offset="1" stop-opacity="0"/></linearGradient><linearGradient id="paint8_linear_6694_208738" x1="298.069" y1="112.763" x2="334.068" y2="148.762" gradientUnits="userSpaceOnUse"><stop/><stop offset="1" stop-opacity="0"/></linearGradient><linearGradient id="paint9_linear_6694_208738" x1="269.824" y1="70.329" x2="288.416" y2="51.737" gradientUnits="userSpaceOnUse"><stop/><stop offset="1" stop-opacity="0"/></linearGradient><linearGradient id="paint10_linear_6694_208738" x1="239.55" y1="90.644" x2="196.589" y2="97.706" gradientUnits="userSpaceOnUse"><stop/><stop offset="1" stop-opacity="0"/></linearGradient><linearGradient id="paint11_linear_6694_208738" x1="8.015" y1="73.171" x2="101.342" y2="73.171" gradientUnits="userSpaceOnUse"><stop stop-color="#5E6673" stop-opacity="0"/><stop offset="1" stop-color="#5E6673"/></linearGradient><linearGradient id="paint12_linear_6694_208738" x1="8.015" y1="83.513" x2="74.883" y2="83.513" gradientUnits="userSpaceOnUse"><stop stop-color="#5E6673" stop-opacity="0"/><stop offset="1" stop-color="#5E6673"/></linearGradient><linearGradient id="paint13_linear_6694_208738" x1="84.948" y1="63.479" x2="74.733" y2="73.695" gradientUnits="userSpaceOnUse"><stop/><stop offset="1" stop-opacity="0"/></linearGradient><linearGradient id="paint14_linear_6694_208738" x1="108.96" y1="46.143" x2="120.132" y2="34.972" gradientUnits="userSpaceOnUse"><stop/><stop offset="1" stop-opacity="0"/></linearGradient><linearGradient id="paint15_linear_6694_208738" x1="96.242" y1="78.868" x2="85.41" y2="89.699" gradientUnits="userSpaceOnUse"><stop/><stop offset="1" stop-opacity="0"/></linearGradient><linearGradient id="paint16_linear_6694_208738" x1="102.729" y1="82.989" x2="93.373" y2="92.345" gradientUnits="userSpaceOnUse"><stop/><stop offset="1" stop-opacity="0"/></linearGradient><linearGradient id="paint17_linear_6694_208738" x1="90.152" y1="59.004" x2="82.209" y2="66.948" gradientUnits="userSpaceOnUse"><stop/><stop offset="1" stop-opacity="0"/></linearGradient><linearGradient id="paint18_linear_6694_208738" x1="107.812" y1="43.051" x2="107.812" y2="50.669" gradientUnits="userSpaceOnUse"><stop stop-opacity="0"/><stop offset="1"/></linearGradient><linearGradient id="paint19_linear_6694_208738" x1="8.015" y1="124.768" x2="63.091" y2="124.768" gradientUnits="userSpaceOnUse"><stop stop-color="#5E6673" stop-opacity="0"/><stop offset="1" stop-color="#5E6673"/></linearGradient><linearGradient id="paint20_linear_6694_208738" x1="8.015" y1="51.413" x2="87.864" y2="51.413" gradientUnits="userSpaceOnUse"><stop stop-color="#5E6673" stop-opacity="0"/><stop offset="1" stop-color="#5E6673"/></linearGradient><linearGradient id="paint21_linear_6694_208738" x1="79.108" y1="106.234" x2="79.108" y2="124.755" gradientUnits="userSpaceOnUse"><stop stop-opacity="0"/><stop offset="1"/></linearGradient><linearGradient id="paint22_linear_6694_208738" x1="228.156" y1="162.014" x2="243.611" y2="162.014" gradientUnits="userSpaceOnUse"><stop stop-opacity="0"/><stop offset="1"/></linearGradient><linearGradient id="paint23_linear_6694_208738" x1="264.293" y1="174.34" x2="294.792" y2="174.34" gradientUnits="userSpaceOnUse"><stop stop-color="#1773EB"/><stop offset="1" stop-color="#328DFD"/></linearGradient><linearGradient id="paint24_linear_6694_208738" x1="252.388" y1="153.773" x2="252.388" y2="174.141" gradientUnits="userSpaceOnUse"><stop stop-opacity="0"/><stop offset="1"/></linearGradient><clipPath id="clip0_6694_208738"><rect width="328" height="248" rx="8" fill="#fff"/></clipPath></defs></svg>