<svg xmlns:xlink="http://www.w3.org/1999/xlink" class="header-nav-subicon_icon" xmlns="http://www.w3.org/2000/svg" fill="currentColor" width="24"  height="24" ><defs><symbol viewBox="0 0 24 24" id="feed-g"><path fillRule="evenodd" clipRule="evenodd" d="M2.00037 2H22.0005V17.9998H11.5407L7.04053 22.5V17.9998H2.00037V2ZM8.54063 6.86475C12.6833 6.86475 16.0416 10.223 16.0416 14.3657L18.0416 14.3657C18.0416 9.11846 13.7879 4.86475 8.54063 4.86475V6.86475ZM12.0406 14.3657C12.0406 12.4327 10.4736 10.8657 8.54063 10.8657V8.8657C11.5782 8.8657 14.0406 11.3281 14.0406 14.3657L12.0406 14.3657ZM8.54053 15.8659C9.36895 15.8659 10.0405 15.1943 10.0405 14.3659C10.0405 13.5375 9.36895 12.8659 8.54053 12.8659C7.7121 12.8659 7.04053 13.5375 7.04053 14.3659C7.04053 15.1943 7.7121 15.8659 8.54053 15.8659Z" fill="url(&quot;#paint0_linear_52508_22402&quot;)"></path><path d="M8.54063 6.86475C12.6833 6.86475 16.0416 10.223 16.0416 14.3657L18.0416 14.3657C18.0416 9.11846 13.7879 4.86475 8.54063 4.86475L8.54063 6.86475Z" fill="#76808F"></path><path d="M12.0406 14.3657C12.0406 12.4327 10.4736 10.8657 8.54063 10.8657L8.54063 8.8657C11.5782 8.8657 14.0406 11.3281 14.0406 14.3657L12.0406 14.3657Z" fill="#76808F"></path><path d="M10.0405 14.3659C10.0405 15.1943 9.36895 15.8659 8.54053 15.8659C7.7121 15.8659 7.04053 15.1943 7.04053 14.3659C7.04053 13.5375 7.7121 12.8659 8.54053 12.8659C9.36895 12.8659 10.0405 13.5375 10.0405 14.3659Z" fill="#76808F"></path><defs><linearGradient id="paint0_linear_52508_22402" x1="12.0005" y1="2" x2="12.0005" y2="22.5" gradientUnits="userSpaceOnUse"><stop stop-color="#F0B90B"></stop><stop offset="1" stop-color="#F8D33A"></stop></linearGradient></defs></symbol></defs><use xlink:href="#feed-g" fill="#0000EE"></use></svg>