<svg xmlns:xlink="http://www.w3.org/1999/xlink" class="header-nav-subicon_icon" xmlns="http://www.w3.org/2000/svg" fill="currentColor" width="24"  height="24" ><defs><symbol viewBox="0 0 24 24" id="p2p-g"><path opacity="0.3" d="M16.75 12.25C17.9927 12.25 19 13.2574 19 14.5C19 15.7426 17.9927 16.75 16.75 16.75C15.5074 16.75 14.5 15.7425 14.5 14.4999C14.5 13.2573 15.5074 12.25 16.75 12.25Z" fill="#AEB4BC"></path><path opacity="0.3" d="M7.25003 2.5C8.49266 2.50003 9.5 3.50743 9.5 4.75003C9.5 5.99263 8.49267 7 7.25002 7C6.00739 6.99997 5 5.99253 5 4.74994C5 3.50733 6.00737 2.5 7.25003 2.5Z" fill="#AEB4BC"></path><path d="M14.25 17.5H15.2105L16.75 19.0235L18.2895 17.5001L19.25 17.5C20.3546 17.5 21.25 18.3861 21.25 19.4792V21.25L12.25 21.2499V19.4792C12.25 18.3861 13.1454 17.5 14.25 17.5Z" fill="url(&quot;#paint0_linear_160_28612&quot;)"></path><path d="M4.75 7.75H5.71053L7.25 9.27347L8.78947 7.75008L9.75 7.75C10.8546 7.75 11.75 8.63612 11.75 9.72921V11.5L2.75 11.4999V9.72921C2.75 8.63612 3.64543 7.75 4.75 7.75Z" fill="url(&quot;#paint1_linear_160_28612&quot;)"></path><circle cx="4.5" cy="4.5" r="4.5" transform="matrix(1 0 0 -1 2.75 21.25)" fill="#F8D33A"></circle><circle cx="3.16667" cy="3.16667" r="3.16667" transform="matrix(1 0 0 -1 4.0835 19.9165)" fill="url(&quot;#paint2_linear_160_28612&quot;)"></circle><path d="M5.62988 16.75L7.24988 18.37L8.86988 16.75L7.24988 15.13L5.62988 16.75Z" fill="#F0B90B"></path><circle cx="4.5" cy="4.5" r="4.5" transform="matrix(1 0 0 -1 12.25 11.5)" fill="#F8D33A"></circle><ellipse cx="3.16667" cy="3.16667" rx="3.16667" ry="3.16667" transform="matrix(1 0 0 -1 13.5835 10.1665)" fill="url(&quot;#paint3_linear_160_28612&quot;)"></ellipse><path d="M15.1299 6.99996L16.7499 8.61996L18.3699 6.99996L16.7499 5.37996L15.1299 6.99996Z" fill="#F0B90B"></path><path opacity="0.3" d="M21.5 16.75L22 16.25L22.5 16.75L22 17.25L21.5 16.75Z" fill="#AEB4BC"></path><path opacity="0.3" d="M10.5 3.25L11.25 2.5L12 3.25L11.25 4L10.5 3.25Z" fill="#AEB4BC"></path><path opacity="0.3" d="M1 13.25L1.5 12.75L2 13.25L1.5 13.75L1 13.25Z" fill="#AEB4BC"></path><defs><linearGradient id="paint0_linear_160_28612" x1="16.75" y1="17.5" x2="16.75" y2="21.25" gradientUnits="userSpaceOnUse"><stop stop-color="#929AA5"></stop><stop offset="1" stop-color="#76808F"></stop></linearGradient><linearGradient id="paint1_linear_160_28612" x1="7.25" y1="7.75" x2="7.25" y2="11.5" gradientUnits="userSpaceOnUse"><stop stop-color="#929AA5"></stop><stop offset="1" stop-color="#76808F"></stop></linearGradient><linearGradient id="paint2_linear_160_28612" x1="3.16667" y1="0" x2="3.16667" y2="6.33333" gradientUnits="userSpaceOnUse"><stop stop-color="#F0B90B"></stop><stop offset="1" stop-color="#F8D33A"></stop></linearGradient><linearGradient id="paint3_linear_160_28612" x1="3.16667" y1="0" x2="3.16667" y2="6.33333" gradientUnits="userSpaceOnUse"><stop stop-color="#F0B90B"></stop><stop offset="1" stop-color="#F8D33A"></stop></linearGradient></defs></symbol></defs><use xlink:href="#p2p-g" fill="#0000EE"></use></svg>