<svg xmlns:xlink="http://www.w3.org/1999/xlink" class="header-nav-subicon_icon" xmlns="http://www.w3.org/2000/svg" fill="currentColor" width="24"  height="24" ><defs><symbol viewBox="0 0 24 24" id="trade-trading-bot-g"><rect x="1" y="10.5" width="2" height="5" fill="#76808F"></rect><rect x="21" y="10.5" width="2" height="5" fill="#76808F"></rect><path d="M3 6H21V20H3V6Z" fill="url(&quot;#paint0_linear_1141_32699&quot;)"></path><rect x="11" y="5" width="2" height="1" fill="#76808F"></rect><rect x="9" y="3" width="6" height="2" fill="#76808F"></rect><path fillRule="evenodd" clipRule="evenodd" d="M9.8 11.075C9.8 11.9863 9.06127 12.725 8.15 12.725C7.23873 12.725 6.5 11.9863 6.5 11.075C6.5 10.1638 7.23873 9.42505 8.15 9.42505C9.06127 9.42505 9.8 10.1638 9.8 11.075ZM8.69604 14.7985H15.296L13.8022 16.4485H10.1961L8.69604 14.7985ZM15.85 12.725C16.7613 12.725 17.5 11.9863 17.5 11.075C17.5 10.1638 16.7613 9.42505 15.85 9.42505C14.9387 9.42505 14.2 10.1638 14.2 11.075C14.2 11.9863 14.9387 12.725 15.85 12.725Z" fill="#76808F"></path><defs><linearGradient id="paint0_linear_1141_32699" x1="12" y1="6" x2="12" y2="20" gradientUnits="userSpaceOnUse"><stop stop-color="#F0B90B"></stop><stop offset="1" stop-color="#F8D33A"></stop></linearGradient></defs></symbol></defs><use xlink:href="#trade-trading-bot-g" fill="#0000EE"></use></svg>