<svg xmlns:xlink="http://www.w3.org/1999/xlink" class="header-nav-subicon_icon" xmlns="http://www.w3.org/2000/svg" fill="currentColor" width="24"  height="24" ><defs><symbol viewBox="0 0 24 24" id="nft-marketplace-g"><rect width="18" height="18" transform="matrix(1 0 0 -1 3 21)" fill="url(&quot;#paint0_linear_108_52&quot;)"></rect><path d="M4 12L12 4L20 12L12 20L4 12Z" fill="#76808F"></path><path d="M8 8V16H16V8H8Z" fill="url(&quot;#paint1_linear_108_52&quot;)"></path><path d="M9.5 12L12 14.5L14.5 12L12 9.5L9.5 12Z" fill="#76808F"></path><path d="M5 16L8 19H5V16Z" fill="#76808F"></path><path d="M5 8L8 5H5V8Z" fill="#76808F"></path><path d="M16 5H19V8L16 5Z" fill="#76808F"></path><path d="M16 19H19V16L16 19Z" fill="#76808F"></path><defs><linearGradient id="paint0_linear_108_52" x1="9" y1="0" x2="9" y2="18" gradientUnits="userSpaceOnUse"><stop stop-color="#F0B90B"></stop><stop offset="1" stop-color="#F8D33A"></stop></linearGradient><linearGradient id="paint1_linear_108_52" x1="12" y1="16" x2="12" y2="8" gradientUnits="userSpaceOnUse"><stop stop-color="#F0B90B"></stop><stop offset="1" stop-color="#F8D33A"></stop></linearGradient></defs></symbol></defs><use xlink:href="#nft-marketplace-g" fill="#0000EE"></use></svg>