<svg xmlns:xlink="http://www.w3.org/1999/xlink" class="header-nav-subicon_icon" xmlns="http://www.w3.org/2000/svg" fill="currentColor" width="24"  height="24" ><defs><symbol viewBox="0 0 24 24" id="defi-wallet-g"><path fillRule="evenodd" clipRule="evenodd" d="M5.50007 8C4.11936 8 3.00007 6.88071 3.00007 5.5L3.00004 11.25L6.25 11.2499V14.5H3.00003L3 17.75H6.25L6.25001 21H21.0001V8H9.50001V11.2499H6.25V8H5.50007ZM6.25 17.75V14.5L9.50001 14.5V17.75L6.25 17.75Z" fill="url(&quot;#paint0_linear_3881_100014&quot;)"></path><path d="M5.5 3H21.0002V8H5.5C4.11929 8 3 6.88071 3 5.5C3 4.11929 4.11929 3 5.5 3Z" fill="#76808F"></path><path d="M21 12V17H16V12H21Z" fill="#76808F"></path><defs><linearGradient id="paint0_linear_3881_100014" x1="12" y1="5.5" x2="12" y2="21" gradientUnits="userSpaceOnUse"><stop stop-color="#F0B90B"></stop><stop offset="1" stop-color="#F8D33A"></stop></linearGradient></defs></symbol></defs><use xlink:href="#defi-wallet-g" fill="#0000EE"></use></svg>