<svg xmlns:xlink="http://www.w3.org/1999/xlink" class="header-nav-subicon_icon" xmlns="http://www.w3.org/2000/svg" fill="currentColor" width="24"  height="24" ><defs><symbol viewBox="0 0 24 24" id="earn-lending-g"> <path d="M11.0552 5.0552L7 1H17L12.9448 5.0552C16.9178 5.52265 20 8.90138 20 13V22H4V13C4 8.90138 7.0822 5.52265 11.0552 5.0552Z" fill="#76808F"></path> <path fillRule="evenodd" clipRule="evenodd" d="M12 7C15.3137 7 18 9.68629 18 13C18 16.3137 15.3137 19 12 19C8.68629 19 6 16.3137 6 13C6 9.68629 8.68629 7 12 7ZM12 10.5L9.5 13L12 15.5L14.5 13L12 10.5Z" fill="url(&quot;#paint0_linear_1_11&quot;)"></path> <defs> <linearGradient id="paint0_linear_1_11" x1="12" y1="19" x2="12" y2="7" gradientUnits="userSpaceOnUse"> <stop stop-color="#F0B90B"></stop> <stop offset="1" stop-color="#F8D33A"></stop> </linearGradient> </defs></symbol></defs><use xlink:href="#earn-lending-g" fill="#0000EE"></use></svg>