<svg xmlns:xlink="http://www.w3.org/1999/xlink" class="search-icon bn-svg hover-color" xmlns="http://www.w3.org/2000/svg" fill="currentColor" width="24"  height="24" ><defs><symbol viewBox="0 0 24 24" id="search-f"> <path fill-rule="evenodd" clip-rule="evenodd" d="M11 6C13.7614 6 16 8.23858 16 11C16 13.7614 13.7614 16 11 16C8.23857 16 6 13.7614 6 11C6 8.23858 8.23858 6 11 6ZM11 3C15.4183 3 19 6.58172 19 11C19 12.3907 18.6451 13.6985 18.021 14.8379L21.0915 17.9086L19.5006 19.4995L17.9097 21.0904L14.8396 18.0201C13.6999 18.6448 12.3914 19 11 19C6.58172 19 3 15.4183 3 11C3 6.58172 6.58172 3 11 3Z" fill="#1E2329"></path></symbol></defs><use xlink:href="#search-f" fill="#1E2329"></use></svg>